HIERARCHY
ROOT Hips
{
	OFFSET 0.00000 0.00000 0.00000
	CHANNELS 6 Xposition Yposition Zposition Zrotation Yrotation Xrotation 
	JOINT LHipJoint
	{
		OFFSET 0 0 0
		CHANNELS 3 Zrotation Yrotation Xrotation
		JOINT LeftHip
		{
			OFFSET 1.24777 -1.64261 0.71711
			CHANNELS 3 Zrotation Yrotation Xrotation
			JOINT LeftKnee
			{
				OFFSET 2.49329 -6.85026 0.00000
				CHANNELS 3 Zrotation Yrotation Xrotation
				JOINT LeftAnkle
				{
					OFFSET 2.36770 -6.50520 0.00000
					CHANNELS 3 Zrotation Yrotation Xrotation
					JOINT LeftToe
					{
						OFFSET 0.14820 -0.40718 2.21395
						CHANNELS 3 Zrotation Yrotation Xrotation
						End Site
						{
							OFFSET 0.00000 -0.00000 1.13491
						}
					}
				}
			}
		}
	}
	JOINT RHipJoint
	{
		OFFSET 0 0 0
		CHANNELS 3 Zrotation Yrotation Xrotation
		JOINT RightHip
		{
			OFFSET -1.18320 -1.64261 0.71711
			CHANNELS 3 Zrotation Yrotation Xrotation
			JOINT RightKnee
			{
				OFFSET -2.46559 -6.77417 0.00000
				CHANNELS 3 Zrotation Yrotation Xrotation
				JOINT RightAnkle
				{
					OFFSET -2.38450 -6.55136 0.00000
					CHANNELS 3 Zrotation Yrotation Xrotation
					JOINT RightToe
					{
						OFFSET -0.17454 -0.47954 2.02925
						CHANNELS 3 Zrotation Yrotation Xrotation
						End Site
						{
							OFFSET -0.00000 -0.00000 1.05076
						}
					}
				}
			}
		}
	}
	JOINT lowerback
	{
		OFFSET 0 0 0
		CHANNELS 3 Zrotation Yrotation Xrotation
		JOINT Chest
		{
			OFFSET -0.02305 1.98660 0.00319
			CHANNELS 3 Zrotation Yrotation Xrotation
			JOINT Chest2
			{
				OFFSET -0.00718 1.99033 -0.00533
				CHANNELS 3 Zrotation Yrotation Xrotation
				JOINT lowerneck
				{
					OFFSET 0 0 0
					CHANNELS 3 Zrotation Yrotation Xrotation
					JOINT Neck
					{
						OFFSET 0.00095 1.61015 0.10698
						CHANNELS 3 Zrotation Yrotation Xrotation
						JOINT Head
						{
							OFFSET -0.01060 1.59924 0.01317
							CHANNELS 3 Zrotation Yrotation Xrotation
							End Site
							{
								OFFSET -0.00458 1.63304 -0.00592
							}
						}
					}
				}
				JOINT LeftCollar
				{
					OFFSET 0 0 0
					CHANNELS 3 Zrotation Yrotation Xrotation
					JOINT LeftShoulder
					{
						OFFSET 3.05381 1.47088 -0.01697
CHANNELS 3 Zrotation Xrotation Yrotation
						JOINT LeftElbow
						{
OFFSET 0 -4.251060 0.000000
CHANNELS 3 Zrotation Xrotation Yrotation
							JOINT LeftWrist
							{
OFFSET 0 -3.275920 0.000000
CHANNELS 3 Zrotation Xrotation Yrotation
								JOINT lhand
								{
									OFFSET 0 0 0
CHANNELS 3 Zrotation Xrotation Yrotation
									JOINT LFingers
									{
OFFSET 0 -0.657810 0.000000
CHANNELS 3 Zrotation Xrotation Yrotation
										End Site
										{
OFFSET 0 -0.530340 0.000000
										}
									}
								}
								JOINT LThumb
								{
OFFSET 0 0.000000 0.000000
CHANNELS 3 Zrotation Xrotation Yrotation
									End Site
									{
OFFSET 0 -0.538440 0.538440
									}
								}
							}
						}
					}
				}
				JOINT RightCollar
				{
					OFFSET 0 0 0
					CHANNELS 3 Zrotation Yrotation Xrotation
					JOINT RightShoulder
					{
						OFFSET -2.83695 1.31619 -0.22674
CHANNELS 3 Zrotation Xrotation Yrotation
						JOINT RightElbow
						{
OFFSET 0 -4.460730 0.000000
CHANNELS 3 Zrotation Xrotation Yrotation
							JOINT RightWrist
							{
OFFSET 0 -3.444160 0.000000
CHANNELS 3 Zrotation Xrotation Yrotation
								JOINT rhand
								{
									OFFSET 0 0 0
CHANNELS 3 Zrotation Xrotation Yrotation
									JOINT RFingers
									{
OFFSET 0 -0.616510 0.000000
CHANNELS 3 Zrotation Xrotation Yrotation
										End Site
										{
OFFSET 0 -0.497050 0.000000
										}
									}
								}
								JOINT RThumb
								{
OFFSET 0 0.000000 0.000000
CHANNELS 3 Zrotation Xrotation Yrotation
									End Site
									{
OFFSET 0 -0.504640 0.504640
									}
								}
							}
						}
					}
				}
			}
		}
	}
}
MOTION
Frames: 6
Frame Time: 0.008333333333333333
6.243100 16.836000 -28.137800 -3.057700 -2.529800 9.021700 0.000000 0.000000 0.000000 -18.760700 -4.658000 -19.981300 3.578100 11.576800 34.250900 4.330200 -8.546100 -38.016200 4.196300 12.417100 37.224000 0.000000 0.000000 0.000000 18.473400 6.755700 -18.309500 -3.599200 -11.607100 34.355900 -2.838600 -0.064600 -31.975800 -1.285400 -7.184400 20.262900 -5.037700 3.669700 -2.051400 3.492800 5.003600 -2.667300 6.424400 2.670200 -2.364000 1.948200 -2.368600 -9.847000 -1.653800 -3.325400 -1.379300 -0.975700 -1.698200 1.164300 -0.000000 -0.000000 0.000000 -0.257200 10.824800 -44.524100 18.971000 -29.382600 5.016600 10.743700 -0.383300 -9.490200 0.000000 0.000000 0.000000 -7.125000 0.000000 0.000000 -14.044100 39.256300 -2.034600 -0.000000 -0.000000 0.000000 -0.875300 13.083600 22.737000 -23.107100 -34.205700 -7.198400 -25.511900 19.371900 20.474800 0.000000 0.000000 0.000000 7.125000 0.000000 -0.000000 3.101300 52.429600 -0.567600
6.238068 16.848125 -28.095845 -2.584815 -2.869602 9.110030 0.000000 0.000000 0.000000 -19.375208 -4.582074 -19.552040 3.475501 11.427620 33.736113 4.338755 -8.231940 -38.084750 4.172909 12.387010 37.115078 0.000000 0.000000 0.000000 17.970451 6.469083 -17.960644 -3.466964 -11.414946 33.692547 -2.866794 0.088611 -32.088468 -1.314622 -7.262055 20.494069 -5.175335 3.659647 -2.722205 3.192484 5.011208 -2.585209 6.238345 2.654618 -1.887288 2.025823 -2.321414 -9.864755 -1.533737 -3.273622 -1.374028 -0.949527 -1.669986 1.170639 0.000000 0.000000 0.000000 -0.049609 11.021016 -44.092093 19.046255 -29.476073 5.053541 8.190733 -0.285626 -14.528305 0.000000 0.000000 0.000000 -7.125000 0.000000 0.000000 -17.688152 43.896598 -0.421321 0.000000 0.000000 0.000000 -0.595613 13.172435 22.897270 -23.100978 -34.198963 -7.194988 -25.608670 19.519372 20.204391 0.000000 0.000000 0.000000 7.125000 0.000000 0.000000 2.933255 52.157084 -0.517192
6.221157 16.854181 -28.092336 -2.672211 -3.040105 9.268097 0.000000 0.000000 0.000000 -19.215608 -4.530517 -19.620715 3.436720 11.370543 33.539941 4.300957 -8.075854 -37.922469 4.150707 12.358254 37.011436 0.000000 0.000000 0.000000 18.147449 7.118972 -17.548772 -3.346021 -11.235056 33.076959 -2.843360 -0.461050 -32.130219 -1.346330 -7.345796 20.743936 -4.879145 3.674618 -3.031813 3.072549 5.035374 -2.551723 5.969474 2.650503 -1.643721 2.063452 -2.299154 -9.856914 -1.396689 -3.250925 -1.491836 -0.909985 -1.656175 1.132973 0.000000 0.000000 0.000000 0.218159 11.037806 -44.083843 19.146315 -29.600061 5.102939 11.070130 -1.594475 -5.212258 0.000000 0.000000 0.000000 -7.125000 0.000000 0.000000 -12.934779 35.040795 -3.205144 0.000000 0.000000 0.000000 -0.431478 13.250259 23.235953 -23.352595 -34.470675 -7.337513 -25.700174 19.463112 20.255337 0.000000 0.000000 0.000000 7.125000 0.000000 0.000000 2.852837 52.228666 -0.508035
6.198956 16.859802 -28.090119 -2.733057 -3.038688 9.338348 0.000000 0.000000 0.000000 -19.042662 -4.526253 -19.653832 3.420524 11.346601 33.457758 4.264585 -7.959130 -37.763028 4.129169 12.330336 36.910820 0.000000 0.000000 0.000000 18.353966 7.752571 -17.043020 -3.239961 -11.073586 32.528670 -2.806278 -1.237667 -32.178360 -1.332447 -7.309478 20.635465 -4.690545 3.659465 -3.296387 2.978734 5.018819 -2.457465 5.788906 2.626702 -1.369314 2.145313 -2.297831 -9.893243 -1.311927 -3.260503 -1.619306 -0.896429 -1.659941 1.098025 0.000000 0.000000 0.000000 0.498484 10.960180 -44.228984 19.246788 -29.724205 5.152657 10.970225 -1.851732 -5.119126 0.000000 0.000000 0.000000 -7.125000 0.000000 0.000000 -12.981432 34.949280 -3.272473 0.000000 0.000000 0.000000 -0.199889 12.725869 23.139418 -23.041012 -34.133647 -7.161268 -25.755808 19.571078 20.119512 0.000000 0.000000 0.000000 7.125000 0.000000 0.000000 2.761959 52.092705 -0.482627
6.179897 16.864814 -28.086809 -2.771249 -3.014106 9.405709 0.000000 0.000000 0.000000 -18.913374 -4.547093 -19.664174 3.401825 11.318700 33.362380 4.233730 -7.870509 -37.626386 4.110993 12.306657 36.825604 0.000000 0.000000 0.000000 18.516182 8.278088 -16.592159 -3.144003 -10.924560 32.025984 -2.771722 -1.915755 -32.224687 -1.312292 -7.256169 20.476603 -4.462559 3.621705 -3.523253 2.871925 4.968736 -2.391390 5.568847 2.587789 -1.136404 2.204343 -2.282402 -9.911218 -1.224804 -3.248476 -1.728602 -0.877297 -1.652828 1.066481 0.000000 0.000000 0.000000 0.760887 10.931838 -44.337061 19.351407 -29.852971 5.204617 11.270537 -2.283653 -3.840733 0.000000 0.000000 0.000000 -7.125000 0.000000 0.000000 -12.525489 33.693078 -3.545170 0.000000 0.000000 0.000000 -0.002962 12.416006 23.188103 -22.922250 -34.003656 -7.094782 -25.869971 19.627044 19.992539 0.000000 0.000000 0.000000 7.125000 0.000000 0.000000 2.614537 51.976921 -0.449430
6.162406 16.869436 -28.082558 -2.779622 -2.919225 9.449164 0.000000 0.000000 0.000000 -18.824242 -4.599905 -19.634687 3.381325 11.288184 33.258032 4.203324 -7.818869 -37.487948 4.094144 12.284573 36.746295 0.000000 0.000000 0.000000 18.641737 8.693282 -16.164047 -3.057542 -10.787555 31.566643 -2.733606 -2.565745 -32.253669 -1.270523 -7.144164 20.143051 -4.219103 3.548824 -3.709103 2.757623 4.868949 -2.334147 5.328588 2.525197 -0.928334 2.247646 -2.254894 -9.916176 -1.142347 -3.218099 -1.832313 -0.856271 -1.636666 1.035067 0.000000 0.000000 0.000000 1.003287 10.920240 -44.429440 19.456841 -29.982462 5.257223 11.313960 -2.495757 -3.567643 0.000000 0.000000 0.000000 -7.125000 0.000000 0.000000 -12.447857 33.423106 -3.605620 0.000000 0.000000 0.000000 0.181232 12.150595 23.264639 -22.837508 -33.910683 -7.047436 -26.103832 19.674968 19.745090 0.000000 0.000000 0.000000 7.125000 0.000000 0.000000 2.317479 51.752408 -0.385571
